<svg id="svg" version="1.1" xmlns="http://www.w3.org/2000/svg" xmlns:xlink="http://www.w3.org/1999/xlink" width="400" height="200" viewBox="0, 0, 400,200"><g id="svgg"><path id="path0" d="M21.800 101.600 L 21.800 168.000 101.900 168.000 L 182.000 168.000 182.000 156.900 L 182.000 145.800 118.000 145.800 L 54.000 145.800 54.000 129.500 L 54.000 113.200 91.900 113.200 L 129.800 113.200 129.800 102.200 L 129.800 91.200 91.900 91.200 L 54.000 91.200 54.000 74.200 L 54.000 57.200 118.000 57.200 L 182.000 57.200 182.000 46.200 L 182.000 35.200 101.900 35.200 L 21.800 35.200 21.800 101.600 M199.800 101.597 L 199.800 168.000 215.900 168.000 L 232.000 168.000 232.000 141.897 L 232.000 115.795 253.284 115.847 L 274.568 115.900 275.040 116.450 C 275.300 116.753,275.627 117.000,275.766 117.000 C 275.905 117.000,276.228 117.225,276.482 117.500 C 276.737 117.775,277.035 118.000,277.145 118.000 C 277.254 118.000,277.509 118.220,277.710 118.488 C 277.912 118.756,278.269 119.024,278.504 119.083 C 278.739 119.142,279.166 119.408,279.453 119.674 C 279.740 119.940,280.026 120.107,280.088 120.046 C 280.149 119.984,280.200 120.038,280.200 120.167 C 280.200 120.295,280.289 120.400,280.398 120.400 C 280.605 120.400,281.258 120.914,282.231 121.844 C 282.544 122.143,282.927 122.339,283.082 122.279 C 283.249 122.215,283.415 122.332,283.489 122.566 C 283.558 122.783,283.830 123.014,284.094 123.081 C 284.358 123.147,284.630 123.381,284.700 123.600 C 284.770 123.820,284.942 124.000,285.083 124.000 C 285.224 124.000,285.546 124.180,285.800 124.400 C 286.054 124.620,286.376 124.800,286.516 124.800 C 286.656 124.800,286.938 125.013,287.143 125.273 C 287.348 125.533,287.714 125.809,287.958 125.887 C 288.201 125.964,288.400 126.111,288.400 126.213 C 288.400 126.316,288.490 126.400,288.600 126.400 C 288.710 126.400,288.980 126.580,289.200 126.800 C 289.420 127.020,289.729 127.200,289.887 127.200 C 290.044 127.200,290.229 127.375,290.297 127.590 C 290.365 127.804,290.611 128.040,290.843 128.114 C 291.076 128.188,291.480 128.462,291.742 128.724 C 292.004 128.986,292.331 129.200,292.468 129.200 C 292.605 129.200,293.104 129.560,293.576 130.000 C 294.047 130.440,294.517 130.800,294.618 130.800 C 294.720 130.800,294.998 131.025,295.237 131.300 C 295.476 131.575,295.771 131.800,295.892 131.800 C 296.012 131.800,296.265 131.980,296.454 132.200 C 296.642 132.420,296.922 132.600,297.077 132.600 C 297.231 132.600,297.409 132.735,297.472 132.900 C 297.536 133.065,297.764 133.200,297.980 133.200 C 298.196 133.200,298.429 133.375,298.497 133.590 C 298.565 133.804,298.805 134.038,299.030 134.110 C 299.255 134.181,299.611 134.411,299.820 134.620 C 300.029 134.829,300.314 135.000,300.453 135.000 C 300.591 135.000,300.874 135.225,301.081 135.500 C 301.287 135.775,301.609 136.000,301.796 136.000 C 301.983 136.000,302.238 136.225,302.364 136.500 C 302.491 136.780,302.760 137.000,302.974 137.000 C 303.185 137.000,303.409 137.135,303.472 137.300 C 303.536 137.465,303.692 137.600,303.821 137.600 C 303.949 137.600,304.263 137.825,304.518 138.100 C 304.772 138.375,305.054 138.600,305.142 138.600 C 305.231 138.600,305.528 138.807,305.802 139.060 C 306.076 139.313,306.457 139.581,306.650 139.654 C 306.843 139.727,307.000 139.886,307.000 140.006 C 307.000 140.125,307.090 140.168,307.200 140.100 C 307.310 140.032,307.400 140.072,307.400 140.188 C 307.400 140.305,307.535 140.400,307.700 140.400 C 307.865 140.400,308.000 140.484,308.000 140.587 C 308.000 140.689,308.198 140.836,308.441 140.913 C 308.942 141.072,309.431 141.503,309.280 141.653 C 309.225 141.708,309.454 141.849,309.790 141.966 C 310.125 142.083,310.400 142.260,310.400 142.358 C 310.400 142.457,310.716 142.707,311.101 142.915 C 311.487 143.122,311.853 143.451,311.915 143.646 C 311.976 143.841,312.149 144.000,312.299 144.000 C 312.449 144.000,312.690 144.114,312.836 144.252 C 312.981 144.391,313.348 144.614,313.650 144.748 C 313.953 144.882,314.200 145.083,314.200 145.196 C 314.200 145.308,314.302 145.400,314.427 145.400 C 314.552 145.400,314.863 145.625,315.118 145.900 C 315.372 146.175,315.675 146.400,315.790 146.400 C 315.906 146.400,316.180 146.580,316.400 146.800 C 316.620 147.020,316.929 147.200,317.087 147.200 C 317.244 147.200,317.431 147.381,317.501 147.603 C 317.571 147.825,317.711 147.955,317.811 147.893 C 317.912 147.831,318.252 148.044,318.568 148.367 C 318.884 148.690,319.337 149.016,319.574 149.092 C 319.812 149.167,319.959 149.305,319.901 149.398 C 319.843 149.491,320.108 149.671,320.489 149.796 C 320.869 149.922,321.233 150.190,321.298 150.392 C 321.362 150.595,321.636 150.816,321.907 150.884 C 322.178 150.952,322.400 151.096,322.400 151.204 C 322.400 151.312,322.502 151.400,322.627 151.400 C 322.752 151.400,323.067 151.630,323.328 151.911 C 323.589 152.192,323.874 152.378,323.962 152.323 C 324.051 152.269,324.288 152.444,324.490 152.712 C 324.691 152.980,324.938 153.200,325.037 153.200 C 325.137 153.200,325.443 153.425,325.718 153.700 C 325.993 153.975,326.335 154.200,326.478 154.200 C 326.621 154.200,326.901 154.380,327.100 154.600 C 327.299 154.820,327.563 155.000,327.687 155.000 C 327.811 155.000,328.041 155.180,328.200 155.400 C 328.359 155.620,328.597 155.800,328.730 155.800 C 328.862 155.800,329.135 156.007,329.335 156.261 C 329.536 156.514,329.858 156.781,330.050 156.854 C 330.243 156.928,330.400 157.080,330.400 157.194 C 330.400 157.307,330.521 157.400,330.669 157.400 C 330.818 157.400,331.146 157.580,331.400 157.800 C 331.654 158.020,331.943 158.200,332.042 158.200 C 332.142 158.200,332.168 158.290,332.100 158.400 C 332.032 158.510,332.117 158.600,332.288 158.600 C 332.460 158.600,332.600 158.684,332.600 158.787 C 332.600 158.889,332.803 159.037,333.050 159.114 C 333.298 159.192,333.703 159.473,333.951 159.739 C 334.199 160.005,334.487 160.170,334.592 160.105 C 334.697 160.040,334.932 160.215,335.114 160.494 C 335.297 160.772,335.577 161.000,335.737 161.000 C 336.067 161.000,336.634 161.499,336.480 161.653 C 336.425 161.708,336.654 161.849,336.990 161.966 C 337.325 162.083,337.600 162.274,337.600 162.390 C 337.600 162.505,337.739 162.600,337.910 162.600 C 338.080 162.600,338.428 162.825,338.682 163.100 C 338.937 163.375,339.207 163.600,339.282 163.600 C 339.358 163.600,339.628 163.825,339.882 164.100 C 340.137 164.375,340.490 164.600,340.666 164.600 C 340.842 164.600,341.082 164.780,341.200 165.000 C 341.318 165.220,341.546 165.400,341.707 165.400 C 341.868 165.400,342.000 165.488,342.000 165.596 C 342.000 165.704,342.208 165.845,342.462 165.908 C 342.715 165.972,343.088 166.244,343.290 166.512 C 343.491 166.780,343.746 167.000,343.855 167.000 C 343.965 167.000,344.263 167.226,344.519 167.502 L 344.984 168.004 364.792 167.998 L 384.600 167.992 384.600 167.480 C 384.600 167.157,384.507 166.998,384.350 167.052 C 384.213 167.099,383.965 166.992,383.800 166.814 C 383.635 166.636,383.253 166.382,382.950 166.250 C 382.648 166.117,382.400 165.881,382.400 165.726 C 382.400 165.571,382.175 165.387,381.900 165.318 C 381.625 165.249,381.400 165.104,381.400 164.996 C 381.400 164.888,381.283 164.800,381.141 164.800 C 380.852 164.800,380.257 164.379,379.373 163.550 C 379.050 163.248,378.664 163.000,378.515 163.000 C 378.365 163.000,378.191 162.865,378.128 162.700 C 378.064 162.535,377.828 162.400,377.602 162.400 C 377.360 162.400,377.099 162.198,376.966 161.906 C 376.843 161.635,376.668 161.458,376.578 161.514 C 376.488 161.569,376.231 161.431,376.007 161.207 C 375.783 160.983,375.543 160.800,375.473 160.800 C 375.403 160.800,375.116 160.553,374.836 160.250 C 374.556 159.947,374.301 159.745,374.270 159.800 C 374.238 159.855,374.040 159.752,373.828 159.570 C 373.616 159.389,373.261 159.183,373.040 159.113 C 372.818 159.042,372.586 158.853,372.525 158.692 C 372.463 158.532,372.308 158.400,372.180 158.400 C 372.052 158.400,371.801 158.233,371.623 158.029 C 371.446 157.824,371.120 157.600,370.900 157.531 C 370.680 157.461,370.262 157.184,369.971 156.914 C 369.681 156.644,369.397 156.470,369.340 156.527 C 369.283 156.584,369.177 156.443,369.105 156.215 C 369.032 155.987,368.809 155.800,368.608 155.800 C 368.407 155.800,368.191 155.665,368.128 155.500 C 368.064 155.335,367.824 155.200,367.594 155.200 C 367.365 155.200,367.212 155.133,367.256 155.050 C 367.355 154.866,366.770 154.322,366.383 154.239 C 366.227 154.205,366.009 154.070,365.897 153.939 C 365.785 153.808,365.425 153.557,365.097 153.382 C 364.769 153.206,364.525 152.952,364.555 152.817 C 364.585 152.681,364.531 152.619,364.435 152.678 C 364.339 152.738,364.077 152.615,363.852 152.405 C 363.627 152.196,363.388 152.078,363.322 152.144 C 363.256 152.210,362.996 152.025,362.745 151.732 C 362.493 151.440,362.219 151.200,362.135 151.200 C 362.051 151.200,361.757 150.975,361.482 150.700 C 361.207 150.425,360.872 150.200,360.739 150.200 C 360.605 150.200,360.259 149.980,359.969 149.712 C 359.680 149.443,359.397 149.270,359.340 149.327 C 359.283 149.384,359.177 149.243,359.105 149.015 C 359.032 148.787,358.818 148.600,358.628 148.600 C 358.438 148.600,357.901 148.244,357.434 147.809 C 356.967 147.374,356.462 147.065,356.311 147.123 C 356.155 147.183,355.985 147.068,355.919 146.859 C 355.854 146.655,355.531 146.386,355.200 146.261 C 354.870 146.137,354.600 145.902,354.600 145.739 C 354.600 145.576,354.375 145.387,354.100 145.318 C 353.825 145.249,353.600 145.104,353.600 144.996 C 353.600 144.888,353.479 144.800,353.331 144.800 C 353.182 144.800,352.876 144.643,352.649 144.450 C 352.423 144.258,352.038 143.965,351.794 143.800 C 351.550 143.635,351.233 143.388,351.090 143.250 C 350.946 143.112,350.751 143.000,350.655 143.000 C 350.560 143.000,350.096 142.640,349.624 142.200 C 349.153 141.760,348.658 141.400,348.524 141.400 C 348.391 141.400,347.913 141.063,347.463 140.650 C 347.012 140.238,346.521 139.873,346.371 139.839 C 346.222 139.805,346.000 139.648,345.878 139.489 C 345.756 139.330,345.511 139.200,345.335 139.200 C 345.158 139.200,344.918 139.020,344.800 138.800 C 344.682 138.580,344.495 138.400,344.384 138.400 C 344.273 138.400,343.957 138.175,343.682 137.900 C 343.407 137.625,343.072 137.400,342.939 137.400 C 342.805 137.400,342.449 137.171,342.148 136.892 C 341.847 136.612,341.600 136.446,341.600 136.523 C 341.600 136.599,341.432 136.467,341.227 136.231 C 341.021 135.994,340.790 135.800,340.712 135.800 C 340.635 135.800,340.446 135.688,340.293 135.550 C 339.633 134.958,339.437 134.830,339.340 134.927 C 339.283 134.984,339.177 134.843,339.105 134.615 C 339.030 134.381,338.802 134.200,338.580 134.200 C 338.364 134.200,338.139 134.073,338.079 133.918 C 338.020 133.763,337.759 133.583,337.499 133.518 C 337.239 133.452,336.969 133.218,336.899 132.997 C 336.829 132.775,336.691 132.644,336.593 132.704 C 336.495 132.765,336.228 132.628,336.000 132.400 C 335.772 132.172,335.503 132.037,335.401 132.099 C 335.300 132.162,335.068 131.985,334.886 131.706 C 334.703 131.428,334.470 131.200,334.368 131.200 C 334.266 131.200,333.957 130.975,333.682 130.700 C 333.407 130.425,333.072 130.200,332.939 130.200 C 332.805 130.200,332.449 129.971,332.148 129.692 C 331.847 129.412,331.600 129.246,331.600 129.323 C 331.600 129.399,331.443 129.280,331.250 129.059 C 331.058 128.838,330.697 128.593,330.450 128.515 C 330.203 128.437,330.000 128.289,330.000 128.187 C 330.000 128.084,329.863 128.000,329.696 128.000 C 329.528 128.000,329.288 127.774,329.162 127.497 C 329.004 127.149,328.825 127.029,328.583 127.105 C 328.346 127.181,328.190 127.084,328.103 126.808 C 328.031 126.584,327.844 126.400,327.685 126.400 C 327.527 126.400,327.202 126.175,326.963 125.900 C 326.724 125.625,326.406 125.400,326.258 125.400 C 326.109 125.400,325.937 125.268,325.875 125.108 C 325.814 124.947,325.573 124.755,325.341 124.681 C 325.109 124.608,324.813 124.447,324.684 124.324 C 324.555 124.201,324.247 123.965,324.000 123.800 C 323.753 123.635,323.433 123.388,323.290 123.250 C 323.146 123.112,322.955 122.999,322.864 122.997 C 322.774 122.995,322.385 122.726,322.000 122.399 C 321.615 122.072,321.191 121.713,321.058 121.602 C 320.926 121.491,320.727 121.400,320.617 121.400 C 320.506 121.400,320.049 121.040,319.600 120.600 C 319.151 120.160,318.650 119.800,318.486 119.800 C 318.322 119.800,318.136 119.665,318.072 119.500 C 318.009 119.335,317.790 119.200,317.586 119.200 C 317.381 119.200,317.118 119.020,317.000 118.800 C 316.882 118.580,316.615 118.400,316.406 118.400 C 316.198 118.400,315.972 118.228,315.905 118.017 C 315.838 117.806,315.540 117.543,315.242 117.433 C 314.944 117.323,314.439 117.001,314.119 116.717 C 313.799 116.432,313.462 116.200,313.369 116.200 C 313.276 116.200,313.200 116.110,313.200 116.000 C 313.200 115.868,320.000 115.800,333.200 115.800 C 346.400 115.800,353.200 115.732,353.200 115.600 C 353.200 115.490,353.587 115.400,354.060 115.400 C 354.533 115.400,355.006 115.324,355.110 115.231 C 355.215 115.138,355.953 114.943,356.750 114.799 C 357.548 114.654,358.200 114.472,358.200 114.393 C 358.200 114.315,358.560 114.194,359.000 114.123 C 359.440 114.053,359.800 113.906,359.800 113.798 C 359.800 113.689,359.935 113.600,360.100 113.600 C 360.265 113.600,360.400 113.520,360.400 113.422 C 360.400 113.257,361.329 112.926,361.454 113.046 C 361.484 113.076,361.732 112.888,362.005 112.628 C 362.277 112.369,362.748 112.068,363.050 111.959 C 363.353 111.850,363.600 111.680,363.600 111.580 C 363.600 111.481,363.713 111.400,363.851 111.400 C 363.989 111.400,364.362 111.088,364.681 110.706 C 364.999 110.325,365.330 110.057,365.417 110.111 C 365.623 110.238,367.424 108.491,367.259 108.325 C 367.190 108.256,367.238 108.200,367.367 108.200 C 367.495 108.200,367.600 108.102,367.600 107.983 C 367.600 107.864,367.915 107.487,368.300 107.146 C 368.685 106.805,369.000 106.405,369.000 106.257 C 369.000 106.109,369.134 105.936,369.298 105.873 C 369.462 105.810,369.701 105.410,369.829 104.983 C 369.960 104.545,370.222 104.157,370.431 104.090 C 370.634 104.026,370.802 103.822,370.804 103.637 C 370.807 103.451,371.075 102.760,371.400 102.100 C 371.725 101.440,371.993 100.692,371.996 100.438 C 371.998 100.170,372.087 100.030,372.208 100.105 C 372.343 100.188,372.370 100.052,372.286 99.717 C 372.205 99.394,372.240 99.200,372.378 99.200 C 372.500 99.200,372.600 98.938,372.600 98.617 C 372.600 98.296,372.693 98.002,372.807 97.964 C 372.926 97.925,373.067 96.850,373.138 95.448 C 373.206 94.101,373.337 93.000,373.431 93.000 C 373.524 93.000,373.600 85.215,373.600 75.700 C 373.600 66.185,373.523 58.400,373.429 58.400 C 373.335 58.400,373.210 57.290,373.152 55.933 C 373.093 54.577,372.955 53.294,372.846 53.083 C 372.433 52.288,372.226 51.663,371.978 50.462 C 371.838 49.781,371.650 49.269,371.561 49.324 C 371.473 49.379,371.400 49.238,371.400 49.012 C 371.400 48.785,371.317 48.600,371.216 48.600 C 371.115 48.600,370.972 48.330,370.900 48.000 C 370.828 47.670,370.685 47.400,370.584 47.400 C 370.483 47.400,370.400 47.265,370.400 47.100 C 370.400 46.935,370.300 46.800,370.179 46.800 C 370.057 46.800,370.006 46.672,370.066 46.517 C 370.126 46.361,370.045 46.183,369.887 46.123 C 369.729 46.062,369.600 45.863,369.600 45.679 C 369.600 45.496,369.375 45.137,369.100 44.882 C 368.825 44.628,368.600 44.364,368.600 44.297 C 368.600 44.120,367.220 42.659,365.803 41.337 C 365.471 41.028,365.200 40.697,365.200 40.601 C 365.200 40.505,365.006 40.365,364.769 40.290 C 364.532 40.215,364.149 39.951,363.919 39.704 C 363.688 39.458,363.298 39.192,363.050 39.114 C 362.803 39.037,362.600 38.896,362.600 38.802 C 362.600 38.709,362.330 38.572,362.000 38.500 C 361.670 38.428,361.400 38.285,361.400 38.184 C 361.400 38.083,361.265 38.000,361.100 38.000 C 360.935 38.000,360.800 37.910,360.800 37.800 C 360.800 37.690,360.626 37.600,360.414 37.600 C 360.202 37.600,359.888 37.459,359.716 37.287 C 359.544 37.115,359.312 37.031,359.202 37.099 C 359.091 37.168,359.000 37.128,359.000 37.012 C 359.000 36.895,358.775 36.800,358.500 36.800 C 358.225 36.800,358.000 36.716,358.000 36.614 C 358.000 36.512,357.505 36.367,356.900 36.291 C 356.295 36.216,355.800 36.074,355.800 35.977 C 355.800 35.880,355.538 35.800,355.217 35.800 C 354.896 35.800,354.596 35.688,354.550 35.550 C 354.484 35.351,338.784 35.289,277.133 35.247 L 199.800 35.193 199.800 101.597 M335.373 57.157 C 335.461 57.299,335.681 57.356,335.866 57.285 C 336.054 57.213,336.200 57.254,336.200 57.379 C 336.200 57.500,336.335 57.600,336.500 57.600 C 336.665 57.600,336.800 57.690,336.800 57.800 C 336.800 57.910,336.897 58.000,337.016 58.000 C 337.302 58.000,339.200 59.893,339.200 60.178 C 339.200 60.300,339.281 60.400,339.380 60.400 C 339.590 60.400,340.048 61.598,339.840 61.603 C 339.763 61.605,339.835 61.691,340.000 61.796 C 340.262 61.961,340.300 63.678,340.300 75.258 C 340.300 89.862,340.348 89.264,339.078 90.492 C 338.846 90.716,338.592 91.103,338.514 91.350 C 338.437 91.598,338.258 91.800,338.118 91.800 C 337.977 91.800,337.699 91.980,337.500 92.200 C 337.301 92.420,336.967 92.600,336.757 92.600 C 336.548 92.600,336.432 92.690,336.500 92.800 C 336.568 92.910,336.446 93.000,336.228 93.000 C 336.011 93.000,335.803 93.091,335.766 93.203 C 335.728 93.315,335.091 93.463,334.349 93.532 C 333.607 93.601,333.000 93.735,333.000 93.829 C 333.000 93.923,310.476 94.000,282.800 94.000 L 232.600 94.000 232.600 75.398 L 232.600 56.797 283.907 56.848 C 325.416 56.890,335.245 56.949,335.373 57.157 " stroke="none" fill="#5454e4" fill-rule="evenodd"></path><path id="path1" d="M372.200 51.388 C 372.200 51.712,372.271 52.020,372.358 52.074 C 372.445 52.128,372.480 51.863,372.436 51.486 C 372.338 50.645,372.200 50.588,372.200 51.388 M85.950 57.350 C 103.578 57.378,132.423 57.378,150.050 57.350 C 167.678 57.322,153.255 57.299,118.000 57.299 C 82.745 57.299,68.323 57.322,85.950 57.350 M355.126 115.158 C 355.072 115.245,355.337 115.280,355.714 115.236 C 356.091 115.192,356.400 115.121,356.400 115.078 C 356.400 114.928,355.223 115.002,355.126 115.158 " stroke="none" fill="#5854e4" fill-rule="evenodd"></path><path id="path2" d="M372.200 51.388 C 372.200 51.712,372.271 52.020,372.358 52.074 C 372.445 52.128,372.480 51.863,372.436 51.486 C 372.338 50.645,372.200 50.588,372.200 51.388 M85.950 57.350 C 103.578 57.378,132.423 57.378,150.050 57.350 C 167.678 57.322,153.255 57.299,118.000 57.299 C 82.745 57.299,68.323 57.322,85.950 57.350 M355.126 115.158 C 355.072 115.245,355.337 115.280,355.714 115.236 C 356.091 115.192,356.400 115.121,356.400 115.078 C 356.400 114.928,355.223 115.002,355.126 115.158 " stroke="none" fill="#5854e4" fill-rule="evenodd"></path><path id="path3" d="M372.200 51.388 C 372.200 51.712,372.271 52.020,372.358 52.074 C 372.445 52.128,372.480 51.863,372.436 51.486 C 372.338 50.645,372.200 50.588,372.200 51.388 M85.950 57.350 C 103.578 57.378,132.423 57.378,150.050 57.350 C 167.678 57.322,153.255 57.299,118.000 57.299 C 82.745 57.299,68.323 57.322,85.950 57.350 M355.126 115.158 C 355.072 115.245,355.337 115.280,355.714 115.236 C 356.091 115.192,356.400 115.121,356.400 115.078 C 356.400 114.928,355.223 115.002,355.126 115.158 " stroke="none" fill="#5854e4" fill-rule="evenodd"></path><path id="path4" d="M372.200 51.388 C 372.200 51.712,372.271 52.020,372.358 52.074 C 372.445 52.128,372.480 51.863,372.436 51.486 C 372.338 50.645,372.200 50.588,372.200 51.388 M85.950 57.350 C 103.578 57.378,132.423 57.378,150.050 57.350 C 167.678 57.322,153.255 57.299,118.000 57.299 C 82.745 57.299,68.323 57.322,85.950 57.350 M355.126 115.158 C 355.072 115.245,355.337 115.280,355.714 115.236 C 356.091 115.192,356.400 115.121,356.400 115.078 C 356.400 114.928,355.223 115.002,355.126 115.158 " stroke="none" fill="#5854e4" fill-rule="evenodd"></path></g></svg>